<svg width="87" height="31" viewBox="0 0 87 31" fill="none" xmlns="http://www.w3.org/2000/svg">
<g clip-path="url(#clip0_3_1788)">
<path d="M22.5712 19.3568L14.0176 14.4288L17.784 12.2464L22.5712 19.3568Z" fill="#D95323"/>
<path d="M15.936 15.6608L24.4896 20.5888L20.7232 22.7712L15.936 15.6608Z" fill="#F59C0D"/>
<path d="M14 23V14.4992L15.848 15.608V21.9088L14 23Z" fill="#96AF24"/>
<path d="M24.5072 12L24.5072 20.5008L22.6592 19.392L22.6592 13.0912L24.5072 12Z" fill="#6A7823"/>
<path d="M66.0148 11.3566L63.6795 7.75126L70.3018 5.02628L66.0148 11.3566Z" fill="#56AF7D"/>
<circle cx="65.7288" cy="17.3672" r="5.72879" fill="#CBC646"/>
<path d="M10.7595 12.6362C11.0495 12.9262 11.1945 13.2862 11.1945 13.7162C11.1945 14.1462 11.0645 14.4712 10.8045 14.6912C10.5445 14.9112 10.2095 14.9912 9.79947 14.9312C9.79947 13.6612 9.24447 13.0262 8.13447 13.0262C7.64447 13.0262 7.24447 13.1412 6.93447 13.3712C6.63447 13.5912 6.48447 13.8962 6.48447 14.2862C6.48447 14.5862 6.55447 14.8112 6.69447 14.9612C6.83447 15.1012 6.93947 15.2062 7.00947 15.2762C7.07947 15.3362 7.20947 15.4212 7.39947 15.5312C7.59947 15.6312 7.73947 15.7012 7.81947 15.7412C7.90947 15.7812 8.08447 15.8612 8.34447 15.9812C8.61447 16.0912 8.79447 16.1662 8.88447 16.2062C9.90447 16.6562 10.6195 17.0862 11.0295 17.4962C11.4495 17.9062 11.6595 18.4762 11.6595 19.2062C11.6595 20.2162 11.3045 21.0362 10.5945 21.6662C9.88447 22.2962 8.92447 22.6112 7.71447 22.6112C6.49447 22.6112 5.57947 22.3362 4.96947 21.7862C4.63947 21.4762 4.47447 21.1162 4.47447 20.7062C4.47447 20.2862 4.60447 19.9562 4.86447 19.7162C5.13447 19.4762 5.53447 19.3562 6.06447 19.3562C6.06447 20.0862 6.21447 20.6212 6.51447 20.9612C6.82447 21.3012 7.30947 21.4712 7.96947 21.4712C8.62947 21.4712 9.14947 21.3212 9.52947 21.0212C9.90947 20.7112 10.0995 20.3262 10.0995 19.8662C10.0995 19.4062 9.91947 19.0362 9.55947 18.7562C9.19947 18.4762 8.71947 18.2062 8.11947 17.9462C7.51947 17.6862 7.12447 17.5162 6.93447 17.4362C6.74447 17.3462 6.49447 17.2062 6.18447 17.0162C5.87447 16.8162 5.64947 16.6262 5.50947 16.4462C5.11947 15.9662 4.92447 15.4162 4.92447 14.7962C4.92447 13.8462 5.27447 13.1262 5.97447 12.6362C6.67447 12.1362 7.51947 11.8862 8.50947 11.8862C9.49947 11.8862 10.2495 12.1362 10.7595 12.6362Z" fill="#96AF24"/>
<path d="M34.5249 22.3862H31.0149V22.2662C31.0149 21.7162 31.2349 21.4212 31.6749 21.3812L32.1099 21.3512H32.1249L31.5249 19.1762H28.8249L28.1949 21.3212L29.4099 21.4112C29.4399 21.4712 29.4349 21.6062 29.3949 21.8162C29.3049 22.1962 29.0849 22.3862 28.7349 22.3862H25.7199V22.2662C25.7199 21.7162 25.9399 21.4212 26.3799 21.3812L26.9349 21.3512L29.8149 12.1112C30.2449 12.0712 30.7499 12.0712 31.3299 12.1112L34.1499 21.3212L35.1999 21.4112C35.2299 21.4712 35.2249 21.6062 35.1849 21.8162C35.0949 22.1962 34.8749 22.3862 34.5249 22.3862ZM29.1099 18.1712H31.2549L30.2199 14.3762L29.1099 18.1712ZM41.4722 18.5612H40.7972V21.3212L42.0722 21.4112C42.1022 21.4712 42.0972 21.6062 42.0572 21.8162C41.9672 22.1962 41.7472 22.3862 41.3972 22.3862H37.8272V22.2662C37.8272 21.7162 38.0472 21.4212 38.4872 21.3812L38.9222 21.3512V13.1462L37.8272 13.0562C37.8172 12.8062 37.8622 12.5862 37.9622 12.3962C38.0622 12.2062 38.2122 12.1112 38.4122 12.1112H41.9222C43.1422 12.1112 44.0922 12.3712 44.7722 12.8912C45.4522 13.4012 45.7922 14.1162 45.7922 15.0362C45.7922 16.1462 45.4122 17.0112 44.6522 17.6312C43.8922 18.2512 42.8322 18.5612 41.4722 18.5612ZM40.7972 17.6312H41.2772C42.0772 17.6312 42.7022 17.4112 43.1522 16.9712C43.6122 16.5312 43.8422 15.9462 43.8422 15.2162C43.8422 14.4762 43.6622 13.9212 43.3022 13.5512C42.9422 13.1812 42.4372 13.0062 41.7872 13.0262L40.7972 13.0562V17.6312ZM51.8645 22.3862H48.4895V22.2662C48.4895 21.7162 48.7095 21.4212 49.1495 21.3812L49.5845 21.3512V13.1762H49.5695L48.5045 13.0862C48.4745 13.0262 48.4795 12.8912 48.5195 12.6812C48.6095 12.3012 48.8295 12.1112 49.1795 12.1112H52.5545V12.2312C52.5545 12.7812 52.3345 13.0762 51.8945 13.1162L51.4595 13.1462V21.3212H51.4745L52.5395 21.4112C52.5995 22.0612 52.3745 22.3862 51.8645 22.3862Z" fill="black"/>
<path d="M4.94681 27.0804V25.6258H5.46527C5.57844 25.6258 5.67219 25.6464 5.74652 25.6876C5.82086 25.7288 5.8765 25.7852 5.91343 25.8567C5.95036 25.9277 5.96882 26.0077 5.96882 26.0967C5.96882 26.1862 5.95012 26.2667 5.91272 26.3382C5.87578 26.4092 5.81991 26.4656 5.7451 26.5072C5.67077 26.5484 5.57725 26.569 5.46456 26.569H5.10803V26.3829H5.44468C5.51617 26.3829 5.57417 26.3706 5.61868 26.346C5.66319 26.3209 5.69586 26.2868 5.71669 26.2437C5.73753 26.2006 5.74794 26.1516 5.74794 26.0967C5.74794 26.0418 5.73753 25.993 5.71669 25.9504C5.69586 25.9078 5.66295 25.8744 5.61797 25.8503C5.57346 25.8261 5.51475 25.814 5.44184 25.814H5.16627V27.0804H4.94681ZM6.7849 27.1024C6.68263 27.1024 6.59338 27.079 6.51715 27.0321C6.44092 26.9852 6.38173 26.9196 6.33959 26.8354C6.29745 26.7511 6.27638 26.6526 6.27638 26.5399C6.27638 26.4267 6.29745 26.3278 6.33959 26.243C6.38173 26.1583 6.44092 26.0925 6.51715 26.0456C6.59338 25.9987 6.68263 25.9753 6.7849 25.9753C6.88718 25.9753 6.97643 25.9987 7.05266 26.0456C7.12889 26.0925 7.18808 26.1583 7.23022 26.243C7.27236 26.3278 7.29343 26.4267 7.29343 26.5399C7.29343 26.6526 7.27236 26.7511 7.23022 26.8354C7.18808 26.9196 7.12889 26.9852 7.05266 27.0321C6.97643 27.079 6.88718 27.1024 6.7849 27.1024ZM6.78561 26.9241C6.8519 26.9241 6.90683 26.9066 6.95039 26.8716C6.99395 26.8365 7.02614 26.7899 7.04698 26.7317C7.06828 26.6734 7.07894 26.6093 7.07894 26.5392C7.07894 26.4696 7.06828 26.4057 7.04698 26.3474C7.02614 26.2887 6.99395 26.2416 6.95039 26.2061C6.90683 26.1706 6.8519 26.1528 6.78561 26.1528C6.71885 26.1528 6.66346 26.1706 6.61942 26.2061C6.57586 26.2416 6.54343 26.2887 6.52212 26.3474C6.50129 26.4057 6.49087 26.4696 6.49087 26.5392C6.49087 26.6093 6.50129 26.6734 6.52212 26.7317C6.54343 26.7899 6.57586 26.8365 6.61942 26.8716C6.66346 26.9066 6.71885 26.9241 6.78561 26.9241ZM7.86377 27.0804L7.54275 25.9895H7.76221L7.97598 26.7906H7.98664L8.20113 25.9895H8.42059L8.63365 26.7871H8.64431L8.85667 25.9895H9.07613L8.75581 27.0804H8.53919L8.3176 26.2927H8.30127L8.07968 27.0804H7.86377ZM9.84462 27.1024C9.73714 27.1024 9.64457 27.0794 9.56692 27.0335C9.48974 26.9871 9.43008 26.922 9.38794 26.8382C9.34628 26.7539 9.32544 26.6552 9.32544 26.542C9.32544 26.4303 9.34628 26.3318 9.38794 26.2466C9.43008 26.1613 9.4888 26.0948 9.56408 26.047C9.63984 25.9992 9.72838 25.9753 9.82971 25.9753C9.89126 25.9753 9.95092 25.9854 10.0087 26.0058C10.0664 26.0262 10.1183 26.0581 10.1642 26.1017C10.2102 26.1453 10.2464 26.2018 10.2729 26.2714C10.2994 26.3406 10.3127 26.4246 10.3127 26.5236V26.5988H9.44547V26.4398H10.1046C10.1046 26.3839 10.0932 26.3344 10.0705 26.2913C10.0477 26.2478 10.0158 26.2134 9.97459 26.1883C9.93387 26.1632 9.88605 26.1507 9.83113 26.1507C9.77147 26.1507 9.71938 26.1654 9.67488 26.1947C9.63084 26.2236 9.59675 26.2615 9.5726 26.3084C9.54893 26.3548 9.53709 26.4052 9.53709 26.4596V26.5839C9.53709 26.6569 9.54988 26.7189 9.57544 26.77C9.60149 26.8212 9.63771 26.8602 9.68411 26.8872C9.73051 26.9137 9.78472 26.927 9.84675 26.927C9.887 26.927 9.92369 26.9213 9.95684 26.9099C9.98998 26.8981 10.0186 26.8806 10.0428 26.8574C10.0669 26.8342 10.0854 26.8055 10.0982 26.7714L10.2992 26.8077C10.2831 26.8668 10.2542 26.9187 10.2125 26.9632C10.1713 27.0072 10.1195 27.0416 10.057 27.0662C9.99495 27.0903 9.92417 27.1024 9.84462 27.1024ZM10.6783 27.0804V25.9895H10.8835V26.1628H10.8949C10.9148 26.1041 10.9498 26.0579 11 26.0243C11.0507 25.9902 11.108 25.9731 11.1719 25.9731C11.1851 25.9731 11.2008 25.9736 11.2188 25.9746C11.2372 25.9755 11.2517 25.9767 11.2621 25.9781V26.1812C11.2536 26.1789 11.2384 26.1763 11.2166 26.1734C11.1948 26.1701 11.1731 26.1685 11.1513 26.1685C11.1011 26.1685 11.0564 26.1791 11.0171 26.2004C10.9782 26.2212 10.9475 26.2504 10.9247 26.2878C10.902 26.3247 10.8906 26.3668 10.8906 26.4142V27.0804H10.6783ZM12.007 27.1024C11.8995 27.1024 11.8069 27.0794 11.7293 27.0335C11.6521 26.9871 11.5924 26.922 11.5503 26.8382C11.5086 26.7539 11.4878 26.6552 11.4878 26.542C11.4878 26.4303 11.5086 26.3318 11.5503 26.2466C11.5924 26.1613 11.6511 26.0948 11.7264 26.047C11.8022 25.9992 11.8907 25.9753 11.992 25.9753C12.0536 25.9753 12.1133 25.9854 12.171 26.0058C12.2288 26.0262 12.2806 26.0581 12.3266 26.1017C12.3725 26.1453 12.4087 26.2018 12.4352 26.2714C12.4617 26.3406 12.475 26.4246 12.475 26.5236V26.5988H11.6078V26.4398H12.2669C12.2669 26.3839 12.2555 26.3344 12.2328 26.2913C12.2101 26.2478 12.1781 26.2134 12.1369 26.1883C12.0962 26.1632 12.0484 26.1507 11.9935 26.1507C11.9338 26.1507 11.8817 26.1654 11.8372 26.1947C11.7932 26.2236 11.7591 26.2615 11.7349 26.3084C11.7113 26.3548 11.6994 26.4052 11.6994 26.4596V26.5839C11.6994 26.6569 11.7122 26.7189 11.7378 26.77C11.7638 26.8212 11.8001 26.8602 11.8465 26.8872C11.8929 26.9137 11.9471 26.927 12.0091 26.927C12.0493 26.927 12.086 26.9213 12.1192 26.9099C12.1523 26.8981 12.181 26.8806 12.2051 26.8574C12.2293 26.8342 12.2477 26.8055 12.2605 26.7714L12.4615 26.8077C12.4454 26.8668 12.4165 26.9187 12.3749 26.9632C12.3337 27.0072 12.2818 27.0416 12.2193 27.0662C12.1573 27.0903 12.0865 27.1024 12.007 27.1024ZM13.249 27.1017C13.1609 27.1017 13.0823 27.0792 13.0132 27.0342C12.9446 26.9888 12.8906 26.9241 12.8513 26.8403C12.8124 26.756 12.793 26.655 12.793 26.5371C12.793 26.4192 12.8127 26.3183 12.852 26.2345C12.8918 26.1507 12.9462 26.0865 13.0153 26.042C13.0845 25.9975 13.1628 25.9753 13.2504 25.9753C13.3181 25.9753 13.3726 25.9866 13.4138 26.0094C13.4554 26.0316 13.4876 26.0577 13.5104 26.0875C13.5336 26.1173 13.5516 26.1436 13.5643 26.1663H13.5771V25.6258H13.7895V27.0804H13.5821V26.9106H13.5643C13.5516 26.9338 13.5331 26.9604 13.5089 26.9902C13.4853 27.02 13.4526 27.0461 13.4109 27.0683C13.3693 27.0906 13.3153 27.1017 13.249 27.1017ZM13.2959 26.9206C13.357 26.9206 13.4086 26.9045 13.4507 26.8723C13.4933 26.8396 13.5255 26.7944 13.5473 26.7366C13.5696 26.6789 13.5807 26.6116 13.5807 26.5349C13.5807 26.4592 13.5698 26.3929 13.548 26.3361C13.5262 26.2792 13.4943 26.235 13.4521 26.2033C13.41 26.1715 13.3579 26.1557 13.2959 26.1557C13.232 26.1557 13.1787 26.1722 13.1361 26.2054C13.0935 26.2385 13.0613 26.2837 13.0395 26.341C13.0182 26.3983 13.0075 26.463 13.0075 26.5349C13.0075 26.6078 13.0184 26.6734 13.0402 26.7317C13.062 26.7899 13.0942 26.8361 13.1368 26.8702C13.1799 26.9038 13.2329 26.9206 13.2959 26.9206ZM14.8989 27.0804V25.6258H15.1113V26.1663H15.1241C15.1364 26.1436 15.1541 26.1173 15.1773 26.0875C15.2005 26.0577 15.2327 26.0316 15.2739 26.0094C15.3151 25.9866 15.3696 25.9753 15.4373 25.9753C15.5253 25.9753 15.6039 25.9975 15.6731 26.042C15.7422 26.0865 15.7964 26.1507 15.8357 26.2345C15.8755 26.3183 15.8954 26.4192 15.8954 26.5371C15.8954 26.655 15.8757 26.756 15.8364 26.8403C15.7971 26.9241 15.7431 26.9888 15.6745 27.0342C15.6058 27.0792 15.5275 27.1017 15.4394 27.1017C15.3731 27.1017 15.3189 27.0906 15.2768 27.0683C15.2351 27.0461 15.2024 27.02 15.1787 26.9902C15.1551 26.9604 15.1368 26.9338 15.1241 26.9106H15.1063V27.0804H14.8989ZM15.107 26.5349C15.107 26.6116 15.1181 26.6789 15.1404 26.7366C15.1626 26.7944 15.1948 26.8396 15.237 26.8723C15.2791 26.9045 15.3307 26.9206 15.3918 26.9206C15.4553 26.9206 15.5083 26.9038 15.5509 26.8702C15.5935 26.8361 15.6257 26.7899 15.6475 26.7317C15.6698 26.6734 15.6809 26.6078 15.6809 26.5349C15.6809 26.463 15.67 26.3983 15.6482 26.341C15.6269 26.2837 15.5947 26.2385 15.5516 26.2054C15.509 26.1722 15.4557 26.1557 15.3918 26.1557C15.3303 26.1557 15.2782 26.1715 15.2356 26.2033C15.1934 26.235 15.1615 26.2792 15.1397 26.3361C15.1179 26.3929 15.107 26.4592 15.107 26.5349ZM16.3609 27.4895C16.3292 27.4895 16.3003 27.4869 16.2743 27.4817C16.2483 27.4769 16.2288 27.4717 16.2161 27.466L16.2672 27.292C16.306 27.3024 16.3406 27.3069 16.3709 27.3055C16.4012 27.3041 16.4279 27.2927 16.4511 27.2714C16.4748 27.2501 16.4957 27.2153 16.5136 27.167L16.5399 27.0946L16.1408 25.9895H16.3681L16.6443 26.8361H16.6557L16.932 25.9895H17.16L16.7104 27.226C16.6895 27.2828 16.663 27.3309 16.6308 27.3702C16.5986 27.4099 16.5603 27.4398 16.5158 27.4596C16.4713 27.4795 16.4197 27.4895 16.3609 27.4895ZM18.2887 27.0804H18.0558L18.5792 25.6258H18.8328L19.3562 27.0804H19.1233L18.712 25.89H18.7007L18.2887 27.0804ZM18.3278 26.5108H19.0835V26.6954H18.3278V26.5108ZM19.6792 27.0804V25.9895H19.8845V26.1628H19.8958C19.9157 26.1041 19.9508 26.0579 20.0009 26.0243C20.0516 25.9902 20.1089 25.9731 20.1728 25.9731C20.1861 25.9731 20.2017 25.9736 20.2197 25.9746C20.2382 25.9755 20.2526 25.9767 20.263 25.9781V26.1812C20.2545 26.1789 20.2393 26.1763 20.2176 26.1734C20.1958 26.1701 20.174 26.1685 20.1522 26.1685C20.102 26.1685 20.0573 26.1791 20.018 26.2004C19.9792 26.2212 19.9484 26.2504 19.9257 26.2878C19.9029 26.3247 19.8916 26.3668 19.8916 26.4142V27.0804H19.6792ZM21.1505 25.9895V26.1599H20.5546V25.9895H21.1505ZM20.7144 25.7281H20.9268V26.7601C20.9268 26.8013 20.9329 26.8323 20.9452 26.8531C20.9575 26.8735 20.9734 26.8874 20.9928 26.895C21.0127 26.9021 21.0342 26.9057 21.0574 26.9057C21.0745 26.9057 21.0894 26.9045 21.1022 26.9021C21.115 26.8997 21.1249 26.8979 21.132 26.8964L21.1704 27.0719C21.1581 27.0766 21.1405 27.0813 21.1178 27.0861C21.0951 27.0913 21.0667 27.0941 21.0326 27.0946C20.9767 27.0955 20.9246 27.0856 20.8763 27.0648C20.828 27.0439 20.789 27.0117 20.7591 26.9682C20.7293 26.9246 20.7144 26.8699 20.7144 26.8041V25.7281ZM21.5154 27.0804V25.9895H21.7277V27.0804H21.5154ZM21.6226 25.8212C21.5857 25.8212 21.554 25.8088 21.5275 25.7842C21.5014 25.7591 21.4884 25.7293 21.4884 25.6947C21.4884 25.6597 21.5014 25.6299 21.5275 25.6052C21.554 25.5801 21.5857 25.5676 21.6226 25.5676C21.6596 25.5676 21.691 25.5801 21.7171 25.6052C21.7436 25.6299 21.7569 25.6597 21.7569 25.6947C21.7569 25.7293 21.7436 25.7591 21.7171 25.7842C21.691 25.8088 21.6596 25.8212 21.6226 25.8212ZM22.6626 25.9895V26.1599H22.0461V25.9895H22.6626ZM22.2152 27.0804V25.8631C22.2152 25.7949 22.2301 25.7383 22.2599 25.6933C22.2897 25.6479 22.3293 25.614 22.3785 25.5917C22.4278 25.569 22.4813 25.5577 22.539 25.5577C22.5816 25.5577 22.6181 25.5612 22.6484 25.5683C22.6787 25.5749 22.7012 25.5811 22.7159 25.5868L22.6662 25.7587C22.6562 25.7558 22.6434 25.7525 22.6278 25.7487C22.6122 25.7444 22.5932 25.7423 22.571 25.7423C22.5194 25.7423 22.4824 25.7551 22.4602 25.7807C22.4384 25.8062 22.4275 25.8432 22.4275 25.8915V27.0804H22.2152ZM23.0117 27.0804V25.9895H23.2241V27.0804H23.0117ZM23.119 25.8212C23.082 25.8212 23.0503 25.8088 23.0238 25.7842C22.9977 25.7591 22.9847 25.7293 22.9847 25.6947C22.9847 25.6597 22.9977 25.6299 23.0238 25.6052C23.0503 25.5801 23.082 25.5676 23.119 25.5676C23.1559 25.5676 23.1874 25.5801 23.2134 25.6052C23.2399 25.6299 23.2532 25.6597 23.2532 25.6947C23.2532 25.7293 23.2399 25.7591 23.2134 25.7842C23.1874 25.8088 23.1559 25.8212 23.119 25.8212ZM24.0993 27.1024C23.9937 27.1024 23.9028 27.0785 23.8266 27.0307C23.7508 26.9824 23.6926 26.9158 23.6518 26.8311C23.6111 26.7463 23.5908 26.6493 23.5908 26.5399C23.5908 26.4291 23.6116 26.3313 23.6533 26.2466C23.6949 26.1613 23.7536 26.0948 23.8294 26.047C23.9051 25.9992 23.9944 25.9753 24.0971 25.9753C24.18 25.9753 24.2539 25.9907 24.3187 26.0214C24.3836 26.0517 24.4359 26.0944 24.4757 26.1493C24.5159 26.2042 24.5399 26.2684 24.5474 26.3417H24.3408C24.3294 26.2906 24.3034 26.2466 24.2626 26.2096C24.2224 26.1727 24.1684 26.1542 24.1007 26.1542C24.0415 26.1542 23.9897 26.1699 23.9452 26.2011C23.9011 26.2319 23.8668 26.2759 23.8422 26.3332C23.8176 26.39 23.8052 26.4573 23.8052 26.5349C23.8052 26.6145 23.8173 26.6831 23.8415 26.7409C23.8656 26.7987 23.8997 26.8434 23.9437 26.8751C23.9882 26.9069 24.0406 26.9227 24.1007 26.9227C24.1409 26.9227 24.1774 26.9154 24.2101 26.9007C24.2432 26.8855 24.2709 26.864 24.2932 26.8361C24.3159 26.8081 24.3318 26.7745 24.3408 26.7352H24.5474C24.5399 26.8058 24.5169 26.8687 24.4785 26.9241C24.4402 26.9795 24.3888 27.0231 24.3244 27.0548C24.2605 27.0865 24.1855 27.1024 24.0993 27.1024ZM24.9045 27.0804V25.9895H25.1169V27.0804H24.9045ZM25.0118 25.8212C24.9748 25.8212 24.9431 25.8088 24.9166 25.7842C24.8906 25.7591 24.8775 25.7293 24.8775 25.6947C24.8775 25.6597 24.8906 25.6299 24.9166 25.6052C24.9431 25.5801 24.9748 25.5676 25.0118 25.5676C25.0487 25.5676 25.0802 25.5801 25.1062 25.6052C25.1327 25.6299 25.146 25.6597 25.146 25.6947C25.146 25.7293 25.1327 25.7591 25.1062 25.7842C25.0802 25.8088 25.0487 25.8212 25.0118 25.8212ZM25.85 27.1045C25.7809 27.1045 25.7184 27.0917 25.6625 27.0662C25.6067 27.0401 25.5624 27.0025 25.5297 26.9533C25.4975 26.904 25.4814 26.8436 25.4814 26.7721C25.4814 26.7106 25.4933 26.6599 25.5169 26.6202C25.5406 26.5804 25.5726 26.5489 25.6128 26.5257C25.6531 26.5025 25.6981 26.485 25.7478 26.4731C25.7975 26.4613 25.8482 26.4523 25.8998 26.4462C25.9651 26.4386 26.0181 26.4324 26.0589 26.4277C26.0996 26.4225 26.1292 26.4142 26.1476 26.4028C26.1661 26.3915 26.1753 26.373 26.1753 26.3474V26.3425C26.1753 26.2804 26.1578 26.2324 26.1228 26.1983C26.0882 26.1642 26.0366 26.1471 25.9679 26.1471C25.8964 26.1471 25.8401 26.163 25.7989 26.1947C25.7582 26.226 25.73 26.2608 25.7144 26.2991L25.5148 26.2537C25.5385 26.1874 25.5731 26.1339 25.6185 26.0932C25.6644 26.052 25.7172 26.0221 25.7769 26.0037C25.8366 25.9847 25.8993 25.9753 25.9651 25.9753C26.0087 25.9753 26.0548 25.9805 26.1036 25.9909C26.1528 26.0008 26.1988 26.0193 26.2414 26.0463C26.2845 26.0733 26.3197 26.1119 26.3472 26.1621C26.3747 26.2118 26.3884 26.2764 26.3884 26.356V27.0804H26.181V26.9312H26.1725C26.1588 26.9587 26.1382 26.9857 26.1107 27.0122C26.0832 27.0387 26.048 27.0607 26.0049 27.0783C25.9618 27.0958 25.9102 27.1045 25.85 27.1045ZM25.8962 26.9341C25.9549 26.9341 26.0051 26.9225 26.0468 26.8993C26.0889 26.8761 26.1209 26.8458 26.1427 26.8084C26.1649 26.7705 26.176 26.73 26.176 26.6869V26.5463C26.1685 26.5539 26.1538 26.561 26.132 26.5676C26.1107 26.5738 26.0863 26.5792 26.0589 26.5839C26.0314 26.5882 26.0046 26.5922 25.9786 26.596C25.9526 26.5993 25.9308 26.6022 25.9133 26.6045C25.8721 26.6097 25.8344 26.6185 25.8003 26.6308C25.7667 26.6431 25.7397 26.6609 25.7194 26.6841C25.6995 26.7068 25.6895 26.7371 25.6895 26.775C25.6895 26.8275 25.7089 26.8673 25.7478 26.8943C25.7866 26.9208 25.8361 26.9341 25.8962 26.9341ZM27.0136 25.6258V27.0804H26.8012V25.6258H27.0136ZM28.3251 25.6258V27.0804H28.1056V25.6258H28.3251ZM28.97 26.4327V27.0804H28.7577V25.9895H28.9615V26.167H28.975C29.0001 26.1093 29.0394 26.0629 29.0929 26.0278C29.1469 25.9928 29.2148 25.9753 29.2967 25.9753C29.3711 25.9753 29.4362 25.9909 29.492 26.0221C29.5479 26.0529 29.5912 26.0988 29.622 26.1599C29.6528 26.221 29.6682 26.2965 29.6682 26.3865V27.0804H29.4558V26.4121C29.4558 26.333 29.4352 26.2712 29.394 26.2267C29.3528 26.1817 29.2962 26.1592 29.2243 26.1592C29.175 26.1592 29.1312 26.1699 29.0929 26.1912C29.055 26.2125 29.0249 26.2437 29.0027 26.2849C28.9809 26.3256 28.97 26.3749 28.97 26.4327ZM30.5922 25.9895V26.1599H29.9963V25.9895H30.5922ZM30.1561 25.7281H30.3685V26.7601C30.3685 26.8013 30.3746 26.8323 30.3869 26.8531C30.3993 26.8735 30.4151 26.8874 30.4345 26.895C30.4544 26.9021 30.476 26.9057 30.4992 26.9057C30.5162 26.9057 30.5311 26.9045 30.5439 26.9021C30.5567 26.8997 30.5666 26.8979 30.5737 26.8964L30.6121 27.0719C30.5998 27.0766 30.5823 27.0813 30.5595 27.0861C30.5368 27.0913 30.5084 27.0941 30.4743 27.0946C30.4184 27.0955 30.3663 27.0856 30.318 27.0648C30.2698 27.0439 30.2307 27.0117 30.2009 26.9682C30.171 26.9246 30.1561 26.8699 30.1561 26.8041V25.7281ZM31.4156 27.1024C31.3081 27.1024 31.2155 27.0794 31.1379 27.0335C31.0607 26.9871 31.001 26.922 30.9589 26.8382C30.9172 26.7539 30.8964 26.6552 30.8964 26.542C30.8964 26.4303 30.9172 26.3318 30.9589 26.2466C31.001 26.1613 31.0597 26.0948 31.135 26.047C31.2108 25.9992 31.2993 25.9753 31.4006 25.9753C31.4622 25.9753 31.5219 25.9854 31.5796 26.0058C31.6374 26.0262 31.6892 26.0581 31.7352 26.1017C31.7811 26.1453 31.8173 26.2018 31.8438 26.2714C31.8703 26.3406 31.8836 26.4246 31.8836 26.5236V26.5988H31.0164V26.4398H31.6755C31.6755 26.3839 31.6641 26.3344 31.6414 26.2913C31.6187 26.2478 31.5867 26.2134 31.5455 26.1883C31.5048 26.1632 31.457 26.1507 31.4021 26.1507C31.3424 26.1507 31.2903 26.1654 31.2458 26.1947C31.2018 26.2236 31.1677 26.2615 31.1435 26.3084C31.1199 26.3548 31.108 26.4052 31.108 26.4596V26.5839C31.108 26.6569 31.1208 26.7189 31.1464 26.77C31.1724 26.8212 31.2086 26.8602 31.255 26.8872C31.3014 26.9137 31.3557 26.927 31.4177 26.927C31.4579 26.927 31.4946 26.9213 31.5278 26.9099C31.5609 26.8981 31.5896 26.8806 31.6137 26.8574C31.6379 26.8342 31.6563 26.8055 31.6691 26.7714L31.8701 26.8077C31.854 26.8668 31.8251 26.9187 31.7835 26.9632C31.7423 27.0072 31.6904 27.0416 31.6279 27.0662C31.5659 27.0903 31.4951 27.1024 31.4156 27.1024ZM32.4616 25.6258V27.0804H32.2492V25.6258H32.4616ZM33.0896 25.6258V27.0804H32.8773V25.6258H33.0896ZM33.5053 27.0804V25.9895H33.7177V27.0804H33.5053ZM33.6126 25.8212C33.5756 25.8212 33.5439 25.8088 33.5174 25.7842C33.4913 25.7591 33.4783 25.7293 33.4783 25.6947C33.4783 25.6597 33.4913 25.6299 33.5174 25.6052C33.5439 25.5801 33.5756 25.5676 33.6126 25.5676C33.6495 25.5676 33.681 25.5801 33.707 25.6052C33.7335 25.6299 33.7468 25.6597 33.7468 25.6947C33.7468 25.7293 33.7335 25.7591 33.707 25.7842C33.681 25.8088 33.6495 25.8212 33.6126 25.8212ZM34.5907 27.5122C34.5041 27.5122 34.4295 27.5008 34.367 27.4781C34.305 27.4554 34.2543 27.4253 34.215 27.3879C34.1757 27.3505 34.1464 27.3095 34.127 27.265L34.3095 27.1898C34.3223 27.2106 34.3393 27.2326 34.3606 27.2558C34.3824 27.2795 34.4118 27.2996 34.4487 27.3162C34.4861 27.3328 34.5342 27.341 34.5929 27.341C34.6734 27.341 34.7399 27.3214 34.7924 27.2821C34.845 27.2433 34.8713 27.1812 34.8713 27.096V26.8815H34.8578C34.845 26.9047 34.8265 26.9305 34.8024 26.9589C34.7787 26.9873 34.746 27.012 34.7044 27.0328C34.6627 27.0536 34.6085 27.064 34.5417 27.064C34.4556 27.064 34.3779 27.0439 34.3088 27.0037C34.2401 26.963 34.1857 26.9031 34.1454 26.824C34.1057 26.7444 34.0858 26.6467 34.0858 26.5307C34.0858 26.4147 34.1054 26.3152 34.1447 26.2324C34.1845 26.1495 34.2389 26.0861 34.3081 26.042C34.3772 25.9975 34.4556 25.9753 34.5432 25.9753C34.6109 25.9753 34.6656 25.9866 34.7072 26.0094C34.7489 26.0316 34.7813 26.0577 34.8045 26.0875C34.8282 26.1173 34.8464 26.1436 34.8592 26.1663H34.8748V25.9895H35.0829V27.1045C35.0829 27.1983 35.0611 27.2752 35.0176 27.3354C34.974 27.3955 34.9151 27.44 34.8407 27.4689C34.7669 27.4978 34.6835 27.5122 34.5907 27.5122ZM34.5886 26.8879C34.6497 26.8879 34.7013 26.8737 34.7434 26.8453C34.7861 26.8164 34.8183 26.7752 34.84 26.7217C34.8623 26.6677 34.8734 26.6031 34.8734 26.5278C34.8734 26.4544 34.8625 26.3898 34.8407 26.3339C34.819 26.2781 34.787 26.2345 34.7449 26.2033C34.7027 26.1715 34.6506 26.1557 34.5886 26.1557C34.5247 26.1557 34.4714 26.1722 34.4288 26.2054C34.3862 26.2381 34.354 26.2826 34.3322 26.3389C34.3109 26.3953 34.3003 26.4582 34.3003 26.5278C34.3003 26.5993 34.3111 26.6621 34.3329 26.716C34.3547 26.77 34.3869 26.8122 34.4295 26.8425C34.4726 26.8728 34.5256 26.8879 34.5886 26.8879ZM35.9679 27.1024C35.8604 27.1024 35.7679 27.0794 35.6902 27.0335C35.613 26.9871 35.5534 26.922 35.5112 26.8382C35.4696 26.7539 35.4487 26.6552 35.4487 26.542C35.4487 26.4303 35.4696 26.3318 35.5112 26.2466C35.5534 26.1613 35.6121 26.0948 35.6874 26.047C35.7631 25.9992 35.8517 25.9753 35.953 25.9753C36.0145 25.9753 36.0742 25.9854 36.132 26.0058C36.1897 26.0262 36.2416 26.0581 36.2875 26.1017C36.3334 26.1453 36.3697 26.2018 36.3962 26.2714C36.4227 26.3406 36.4359 26.4246 36.4359 26.5236V26.5988H35.5688V26.4398H36.2278C36.2278 26.3839 36.2165 26.3344 36.1938 26.2913C36.171 26.2478 36.1391 26.2134 36.0979 26.1883C36.0572 26.1632 36.0093 26.1507 35.9544 26.1507C35.8947 26.1507 35.8427 26.1654 35.7982 26.1947C35.7541 26.2236 35.72 26.2615 35.6959 26.3084C35.6722 26.3548 35.6604 26.4052 35.6604 26.4596V26.5839C35.6604 26.6569 35.6732 26.7189 35.6987 26.77C35.7248 26.8212 35.761 26.8602 35.8074 26.8872C35.8538 26.9137 35.908 26.927 35.97 26.927C36.0103 26.927 36.047 26.9213 36.0801 26.9099C36.1133 26.8981 36.1419 26.8806 36.1661 26.8574C36.1902 26.8342 36.2087 26.8055 36.2215 26.7714L36.4224 26.8077C36.4063 26.8668 36.3775 26.9187 36.3358 26.9632C36.2946 27.0072 36.2428 27.0416 36.1803 27.0662C36.1182 27.0903 36.0474 27.1024 35.9679 27.1024ZM37.0139 26.4327V27.0804H36.8016V25.9895H37.0054V26.167H37.0189C37.044 26.1093 37.0833 26.0629 37.1368 26.0278C37.1908 25.9928 37.2587 25.9753 37.3406 25.9753C37.415 25.9753 37.4801 25.9909 37.5359 26.0221C37.5918 26.0529 37.6351 26.0988 37.6659 26.1599C37.6967 26.221 37.7121 26.2965 37.7121 26.3865V27.0804H37.4997V26.4121C37.4997 26.333 37.4791 26.2712 37.4379 26.2267C37.3967 26.1817 37.3402 26.1592 37.2682 26.1592C37.2189 26.1592 37.1751 26.1699 37.1368 26.1912C37.0989 26.2125 37.0688 26.2437 37.0466 26.2849C37.0248 26.3256 37.0139 26.3749 37.0139 26.4327ZM38.5864 27.1024C38.4808 27.1024 38.3899 27.0785 38.3137 27.0307C38.2379 26.9824 38.1797 26.9158 38.1389 26.8311C38.0982 26.7463 38.0779 26.6493 38.0779 26.5399C38.0779 26.4291 38.0987 26.3313 38.1404 26.2466C38.182 26.1613 38.2407 26.0948 38.3165 26.047C38.3923 25.9992 38.4815 25.9753 38.5843 25.9753C38.6671 25.9753 38.741 25.9907 38.8058 26.0214C38.8707 26.0517 38.923 26.0944 38.9628 26.1493C39.0031 26.2042 39.027 26.2684 39.0345 26.3417H38.8279C38.8165 26.2906 38.7905 26.2466 38.7497 26.2096C38.7095 26.1727 38.6555 26.1542 38.5878 26.1542C38.5286 26.1542 38.4768 26.1699 38.4323 26.2011C38.3882 26.2319 38.3539 26.2759 38.3293 26.3332C38.3047 26.39 38.2924 26.4573 38.2924 26.5349C38.2924 26.6145 38.3044 26.6831 38.3286 26.7409C38.3527 26.7987 38.3868 26.8434 38.4308 26.8751C38.4754 26.9069 38.5277 26.9227 38.5878 26.9227C38.6281 26.9227 38.6645 26.9154 38.6972 26.9007C38.7303 26.8855 38.758 26.864 38.7803 26.8361C38.803 26.8081 38.8189 26.7745 38.8279 26.7352H39.0345C39.027 26.8058 39.004 26.8687 38.9656 26.9241C38.9273 26.9795 38.8759 27.0231 38.8115 27.0548C38.7476 27.0865 38.6726 27.1024 38.5864 27.1024ZM39.8618 27.1024C39.7543 27.1024 39.6618 27.0794 39.5841 27.0335C39.5069 26.9871 39.4473 26.922 39.4051 26.8382C39.3635 26.7539 39.3426 26.6552 39.3426 26.542C39.3426 26.4303 39.3635 26.3318 39.4051 26.2466C39.4473 26.1613 39.506 26.0948 39.5813 26.047C39.657 25.9992 39.7456 25.9753 39.8469 25.9753C39.9084 25.9753 39.9681 25.9854 40.0259 26.0058C40.0836 26.0262 40.1355 26.0581 40.1814 26.1017C40.2273 26.1453 40.2636 26.2018 40.2901 26.2714C40.3166 26.3406 40.3298 26.4246 40.3298 26.5236V26.5988H39.4627V26.4398H40.1218C40.1218 26.3839 40.1104 26.3344 40.0877 26.2913C40.0649 26.2478 40.033 26.2134 39.9918 26.1883C39.9511 26.1632 39.9032 26.1507 39.8483 26.1507C39.7887 26.1507 39.7366 26.1654 39.6921 26.1947C39.648 26.2236 39.6139 26.2615 39.5898 26.3084C39.5661 26.3548 39.5543 26.4052 39.5543 26.4596V26.5839C39.5543 26.6569 39.5671 26.7189 39.5926 26.77C39.6187 26.8212 39.6549 26.8602 39.7013 26.8872C39.7477 26.9137 39.8019 26.927 39.8639 26.927C39.9042 26.927 39.9409 26.9213 39.974 26.9099C40.0072 26.8981 40.0358 26.8806 40.06 26.8574C40.0841 26.8342 40.1026 26.8055 40.1154 26.7714L40.3164 26.8077C40.3003 26.8668 40.2714 26.9187 40.2297 26.9632C40.1885 27.0072 40.1367 27.0416 40.0742 27.0662C40.0121 27.0903 39.9414 27.1024 39.8618 27.1024Z" fill="#868686"/>
</g>
<defs>
<clipPath id="clip0_3_1788">
<rect width="87" height="31" fill="white"/>
</clipPath>
</defs>
</svg>
