<svg width="89" height="89" viewBox="0 0 89 89" fill="none" xmlns="http://www.w3.org/2000/svg">
<path d="M53.9025 38.4463L12.6897 14.7023L30.8369 4.18713L53.9025 38.4463Z" fill="#373737"/>
<path d="M21.9328 20.6384L63.1456 44.3824L44.9984 54.8976L21.9328 20.6384Z" fill="#969696"/>
<path d="M12.6049 56V15.0416L21.5089 20.384V50.7424L12.6049 56Z" fill="#ABAEB5"/>
<path d="M63.2304 2.99998L63.2304 43.9584L54.3264 38.616L54.3264 8.25758L63.2304 2.99998Z" fill="#ABAEB5"/>
<path d="M74.4758 60.1154L71.5291 55.5661L79.8853 52.1276L74.4758 60.1154Z" fill="#56AF7D"/>
<circle cx="74.1149" cy="67.6997" r="7.22879" fill="#969696"/>
<path d="M18.4656 63.4687C18.7556 63.7587 18.9006 64.1187 18.9006 64.5487C18.9006 64.9787 18.7706 65.3037 18.5106 65.5237C18.2506 65.7437 17.9156 65.8237 17.5056 65.7637C17.5056 64.4937 16.9506 63.8587 15.8406 63.8587C15.3506 63.8587 14.9506 63.9737 14.6406 64.2037C14.3406 64.4237 14.1906 64.7287 14.1906 65.1187C14.1906 65.4187 14.2606 65.6437 14.4006 65.7937C14.5406 65.9337 14.6456 66.0387 14.7156 66.1087C14.7856 66.1687 14.9156 66.2537 15.1056 66.3637C15.3056 66.4637 15.4456 66.5337 15.5256 66.5737C15.6156 66.6137 15.7906 66.6937 16.0506 66.8137C16.3206 66.9237 16.5006 66.9987 16.5906 67.0387C17.6106 67.4887 18.3256 67.9187 18.7356 68.3287C19.1556 68.7387 19.3656 69.3087 19.3656 70.0387C19.3656 71.0487 19.0106 71.8687 18.3006 72.4987C17.5906 73.1288 16.6306 73.4438 15.4206 73.4438C14.2006 73.4438 13.2856 73.1687 12.6756 72.6187C12.3456 72.3087 12.1806 71.9487 12.1806 71.5387C12.1806 71.1187 12.3106 70.7887 12.5706 70.5487C12.8406 70.3087 13.2406 70.1887 13.7706 70.1887C13.7706 70.9187 13.9206 71.4537 14.2206 71.7937C14.5306 72.1337 15.0156 72.3037 15.6756 72.3037C16.3356 72.3037 16.8556 72.1537 17.2356 71.8537C17.6156 71.5437 17.8056 71.1587 17.8056 70.6987C17.8056 70.2387 17.6256 69.8687 17.2656 69.5887C16.9056 69.3087 16.4256 69.0387 15.8256 68.7787C15.2256 68.5187 14.8306 68.3487 14.6406 68.2687C14.4506 68.1787 14.2006 68.0387 13.8906 67.8487C13.5806 67.6487 13.3556 67.4587 13.2156 67.2787C12.8256 66.7987 12.6306 66.2487 12.6306 65.6287C12.6306 64.6787 12.9806 63.9587 13.6806 63.4687C14.3806 62.9687 15.2256 62.7187 16.2156 62.7187C17.2056 62.7187 17.9556 62.9687 18.4656 63.4687Z" fill="#96AF24"/>
<path d="M29.1487 62.9437H31.7587C31.7587 62.9437 31.7587 62.9837 31.7587 63.0637C31.7587 63.6137 31.5387 63.9087 31.0987 63.9487L30.6637 63.9787V73.0237C30.3637 73.1637 29.9787 73.2338 29.5087 73.2338L24.4237 65.6287V72.1537L25.5037 72.2437C25.5637 72.8937 25.3387 73.2188 24.8287 73.2188H22.2037V73.0987C22.2037 72.5487 22.4237 72.2537 22.8637 72.2137L23.2987 72.1837V64.0087L22.2187 63.9187C22.1887 63.8587 22.1937 63.7237 22.2337 63.5137C22.3237 63.1337 22.5437 62.9437 22.8937 62.9437H24.8587L29.5387 69.9187V64.0087L28.4737 63.9187C28.4137 63.2687 28.6387 62.9437 29.1487 62.9437Z" fill="#F59C0D"/>
<path d="M42.8187 73.2188H39.3087V73.0987C39.3087 72.5487 39.5287 72.2537 39.9687 72.2137L40.4037 72.1837H40.4187L39.8187 70.0087H37.1187L36.4887 72.1537L37.7037 72.2437C37.7337 72.3037 37.7287 72.4387 37.6887 72.6487C37.5987 73.0287 37.3787 73.2188 37.0287 73.2188H34.0137V73.0987C34.0137 72.5487 34.2337 72.2537 34.6737 72.2137L35.2287 72.1837L38.1087 62.9437C38.5387 62.9037 39.0437 62.9037 39.6237 62.9437L42.4437 72.1537L43.4937 72.2437C43.5237 72.3037 43.5187 72.4387 43.4787 72.6487C43.3887 73.0287 43.1687 73.2188 42.8187 73.2188ZM37.4037 69.0037H39.5487L38.5137 65.2087L37.4037 69.0037ZM49.7661 69.3937H49.0911V72.1537L50.3661 72.2437C50.3961 72.3037 50.3911 72.4387 50.3511 72.6487C50.2611 73.0287 50.0411 73.2188 49.6911 73.2188H46.1211V73.0987C46.1211 72.5487 46.3411 72.2537 46.7811 72.2137L47.2161 72.1837V63.9787L46.1211 63.8887C46.1111 63.6387 46.1561 63.4187 46.2561 63.2287C46.3561 63.0387 46.5061 62.9437 46.7061 62.9437H50.2161C51.4361 62.9437 52.3861 63.2037 53.0661 63.7237C53.7461 64.2337 54.0861 64.9487 54.0861 65.8687C54.0861 66.9787 53.7061 67.8437 52.9461 68.4637C52.1861 69.0837 51.1261 69.3937 49.7661 69.3937ZM49.0911 68.4637H49.5711C50.3711 68.4637 50.9961 68.2437 51.4461 67.8037C51.9061 67.3637 52.1361 66.7787 52.1361 66.0487C52.1361 65.3087 51.9561 64.7537 51.5961 64.3837C51.2361 64.0137 50.7311 63.8387 50.0811 63.8587L49.0911 63.8887V68.4637ZM60.1584 73.2188H56.7834V73.0987C56.7834 72.5487 57.0034 72.2537 57.4434 72.2137L57.8784 72.1837V64.0087H57.8634L56.7984 63.9187C56.7684 63.8587 56.7734 63.7237 56.8134 63.5137C56.9034 63.1337 57.1234 62.9437 57.4734 62.9437H60.8484V63.0637C60.8484 63.6137 60.6284 63.9087 60.1884 63.9487L59.7534 63.9787V72.1537H59.7684L60.8334 72.2437C60.8934 72.8937 60.6684 73.2188 60.1584 73.2188Z" fill="black"/>
<path d="M12.9468 77.913V76.4584H13.4653C13.5784 76.4584 13.6722 76.479 13.7465 76.5202C13.8209 76.5614 13.8765 76.6177 13.9134 76.6892C13.9504 76.7603 13.9688 76.8403 13.9688 76.9293C13.9688 77.0188 13.9501 77.0993 13.9127 77.1708C13.8758 77.2418 13.8199 77.2981 13.7451 77.3398C13.6708 77.381 13.5773 77.4016 13.4646 77.4016H13.108V77.2155H13.4447C13.5162 77.2155 13.5742 77.2032 13.6187 77.1786C13.6632 77.1535 13.6959 77.1194 13.7167 77.0763C13.7375 77.0332 13.7479 76.9842 13.7479 76.9293C13.7479 76.8744 13.7375 76.8256 13.7167 76.783C13.6959 76.7404 13.663 76.707 13.618 76.6829C13.5735 76.6587 13.5148 76.6466 13.4418 76.6466H13.1663V77.913H12.9468ZM14.7849 77.935C14.6826 77.935 14.5934 77.9115 14.5171 77.8647C14.4409 77.8178 14.3817 77.7522 14.3396 77.6679C14.2975 77.5837 14.2764 77.4852 14.2764 77.3725C14.2764 77.2593 14.2975 77.1604 14.3396 77.0756C14.3817 76.9909 14.4409 76.925 14.5171 76.8782C14.5934 76.8313 14.6826 76.8079 14.7849 76.8079C14.8872 76.8079 14.9764 76.8313 15.0527 76.8782C15.1289 76.925 15.1881 76.9909 15.2302 77.0756C15.2724 77.1604 15.2934 77.2593 15.2934 77.3725C15.2934 77.4852 15.2724 77.5837 15.2302 77.6679C15.1881 77.7522 15.1289 77.8178 15.0527 77.8647C14.9764 77.9115 14.8872 77.935 14.7849 77.935ZM14.7856 77.7567C14.8519 77.7567 14.9068 77.7392 14.9504 77.7042C14.9939 77.6691 15.0261 77.6225 15.047 77.5642C15.0683 77.506 15.0789 77.4418 15.0789 77.3718C15.0789 77.3022 15.0683 77.2382 15.047 77.18C15.0261 77.1213 14.9939 77.0742 14.9504 77.0387C14.9068 77.0032 14.8519 76.9854 14.7856 76.9854C14.7189 76.9854 14.6635 77.0032 14.6194 77.0387C14.5759 77.0742 14.5434 77.1213 14.5221 77.18C14.5013 77.2382 14.4909 77.3022 14.4909 77.3718C14.4909 77.4418 14.5013 77.506 14.5221 77.5642C14.5434 77.6225 14.5759 77.6691 14.6194 77.7042C14.6635 77.7392 14.7189 77.7567 14.7856 77.7567ZM15.8638 77.913L15.5427 76.8221H15.7622L15.976 77.6232H15.9866L16.2011 76.8221H16.4206L16.6337 77.6196H16.6443L16.8567 76.8221H17.0761L16.7558 77.913H16.5392L16.3176 77.1253H16.3013L16.0797 77.913H15.8638ZM17.8446 77.935C17.7371 77.935 17.6446 77.912 17.5669 77.8661C17.4897 77.8197 17.4301 77.7546 17.3879 77.6708C17.3463 77.5865 17.3254 77.4878 17.3254 77.3746C17.3254 77.2629 17.3463 77.1644 17.3879 77.0792C17.4301 76.9939 17.4888 76.9274 17.5641 76.8796C17.6398 76.8318 17.7284 76.8079 17.8297 76.8079C17.8913 76.8079 17.9509 76.818 18.0087 76.8384C18.0664 76.8587 18.1183 76.8907 18.1642 76.9343C18.2102 76.9778 18.2464 77.0344 18.2729 77.104C18.2994 77.1731 18.3127 77.2572 18.3127 77.3561V77.4314H17.4455V77.2723H18.1046C18.1046 77.2165 18.0932 77.167 18.0705 77.1239C18.0477 77.0803 18.0158 77.046 17.9746 77.0209C17.9339 76.9958 17.886 76.9833 17.8311 76.9833C17.7715 76.9833 17.7194 76.998 17.6749 77.0273C17.6308 77.0562 17.5968 77.0941 17.5726 77.1409C17.5489 77.1873 17.5371 77.2378 17.5371 77.2922V77.4165C17.5371 77.4894 17.5499 77.5515 17.5754 77.6026C17.6015 77.6537 17.6377 77.6928 17.6841 77.7198C17.7305 77.7463 17.7847 77.7596 17.8468 77.7596C17.887 77.7596 17.9237 77.7539 17.9568 77.7425C17.99 77.7307 18.0186 77.7132 18.0428 77.69C18.0669 77.6668 18.0854 77.6381 18.0982 77.604L18.2992 77.6402C18.2831 77.6994 18.2542 77.7513 18.2125 77.7958C18.1713 77.8398 18.1195 77.8741 18.057 77.8988C17.995 77.9229 17.9242 77.935 17.8446 77.935ZM18.6783 77.913V76.8221H18.8835V76.9954H18.8949C18.9148 76.9366 18.9498 76.8905 19 76.8569C19.0507 76.8228 19.108 76.8057 19.1719 76.8057C19.1851 76.8057 19.2008 76.8062 19.2188 76.8071C19.2372 76.8081 19.2517 76.8093 19.2621 76.8107V77.0138C19.2536 77.0114 19.2384 77.0088 19.2166 77.006C19.1948 77.0027 19.1731 77.001 19.1513 77.001C19.1011 77.001 19.0564 77.0117 19.0171 77.033C18.9782 77.0538 18.9475 77.0829 18.9247 77.1204C18.902 77.1573 18.8906 77.1994 18.8906 77.2468V77.913H18.6783ZM20.007 77.935C19.8995 77.935 19.8069 77.912 19.7293 77.8661C19.6521 77.8197 19.5924 77.7546 19.5503 77.6708C19.5086 77.5865 19.4878 77.4878 19.4878 77.3746C19.4878 77.2629 19.5086 77.1644 19.5503 77.0792C19.5924 76.9939 19.6511 76.9274 19.7264 76.8796C19.8022 76.8318 19.8907 76.8079 19.992 76.8079C20.0536 76.8079 20.1133 76.818 20.171 76.8384C20.2288 76.8587 20.2806 76.8907 20.3266 76.9343C20.3725 76.9778 20.4087 77.0344 20.4352 77.104C20.4617 77.1731 20.475 77.2572 20.475 77.3561V77.4314H19.6078V77.2723H20.2669C20.2669 77.2165 20.2555 77.167 20.2328 77.1239C20.2101 77.0803 20.1781 77.046 20.1369 77.0209C20.0962 76.9958 20.0484 76.9833 19.9935 76.9833C19.9338 76.9833 19.8817 76.998 19.8372 77.0273C19.7932 77.0562 19.7591 77.0941 19.7349 77.1409C19.7113 77.1873 19.6994 77.2378 19.6994 77.2922V77.4165C19.6994 77.4894 19.7122 77.5515 19.7378 77.6026C19.7638 77.6537 19.8001 77.6928 19.8465 77.7198C19.8929 77.7463 19.9471 77.7596 20.0091 77.7596C20.0493 77.7596 20.086 77.7539 20.1192 77.7425C20.1523 77.7307 20.181 77.7132 20.2051 77.69C20.2293 77.6668 20.2477 77.6381 20.2605 77.604L20.4615 77.6402C20.4454 77.6994 20.4165 77.7513 20.3749 77.7958C20.3337 77.8398 20.2818 77.8741 20.2193 77.8988C20.1573 77.9229 20.0865 77.935 20.007 77.935ZM21.249 77.9343C21.1609 77.9343 21.0823 77.9118 21.0132 77.8668C20.9446 77.8213 20.8906 77.7567 20.8513 77.6729C20.8124 77.5886 20.793 77.4875 20.793 77.3696C20.793 77.2517 20.8127 77.1509 20.852 77.0671C20.8918 76.9833 20.9462 76.9191 21.0153 76.8746C21.0845 76.8301 21.1628 76.8079 21.2504 76.8079C21.3181 76.8079 21.3726 76.8192 21.4138 76.8419C21.4554 76.8642 21.4876 76.8902 21.5104 76.9201C21.5336 76.9499 21.5516 76.9762 21.5643 76.9989H21.5771V76.4584H21.7895V77.913H21.5821V77.7432H21.5643C21.5516 77.7664 21.5331 77.7929 21.5089 77.8228C21.4853 77.8526 21.4526 77.8786 21.4109 77.9009C21.3693 77.9231 21.3153 77.9343 21.249 77.9343ZM21.2959 77.7532C21.357 77.7532 21.4086 77.7371 21.4507 77.7049C21.4933 77.6722 21.5255 77.627 21.5473 77.5692C21.5696 77.5114 21.5807 77.4442 21.5807 77.3675C21.5807 77.2918 21.5698 77.2255 21.548 77.1686C21.5262 77.1118 21.4943 77.0676 21.4521 77.0358C21.41 77.0041 21.3579 76.9882 21.2959 76.9882C21.232 76.9882 21.1787 77.0048 21.1361 77.038C21.0935 77.0711 21.0613 77.1163 21.0395 77.1736C21.0182 77.2309 21.0075 77.2955 21.0075 77.3675C21.0075 77.4404 21.0184 77.506 21.0402 77.5642C21.062 77.6225 21.0942 77.6686 21.1368 77.7027C21.1799 77.7364 21.2329 77.7532 21.2959 77.7532ZM22.8989 77.913V76.4584H23.1113V76.9989H23.1241C23.1364 76.9762 23.1541 76.9499 23.1773 76.9201C23.2005 76.8902 23.2327 76.8642 23.2739 76.8419C23.3151 76.8192 23.3696 76.8079 23.4373 76.8079C23.5253 76.8079 23.6039 76.8301 23.6731 76.8746C23.7422 76.9191 23.7964 76.9833 23.8357 77.0671C23.8755 77.1509 23.8954 77.2517 23.8954 77.3696C23.8954 77.4875 23.8757 77.5886 23.8364 77.6729C23.7971 77.7567 23.7431 77.8213 23.6745 77.8668C23.6058 77.9118 23.5275 77.9343 23.4394 77.9343C23.3731 77.9343 23.3189 77.9231 23.2768 77.9009C23.2351 77.8786 23.2024 77.8526 23.1787 77.8228C23.1551 77.7929 23.1368 77.7664 23.1241 77.7432H23.1063V77.913H22.8989ZM23.107 77.3675C23.107 77.4442 23.1181 77.5114 23.1404 77.5692C23.1626 77.627 23.1948 77.6722 23.237 77.7049C23.2791 77.7371 23.3307 77.7532 23.3918 77.7532C23.4553 77.7532 23.5083 77.7364 23.5509 77.7027C23.5935 77.6686 23.6257 77.6225 23.6475 77.5642C23.6698 77.506 23.6809 77.4404 23.6809 77.3675C23.6809 77.2955 23.67 77.2309 23.6482 77.1736C23.6269 77.1163 23.5947 77.0711 23.5516 77.038C23.509 77.0048 23.4557 76.9882 23.3918 76.9882C23.3303 76.9882 23.2782 77.0041 23.2356 77.0358C23.1934 77.0676 23.1615 77.1118 23.1397 77.1686C23.1179 77.2255 23.107 77.2918 23.107 77.3675ZM24.3609 78.3221C24.3292 78.3221 24.3003 78.3195 24.2743 78.3142C24.2483 78.3095 24.2288 78.3043 24.2161 78.2986L24.2672 78.1246C24.306 78.135 24.3406 78.1395 24.3709 78.1381C24.4012 78.1367 24.4279 78.1253 24.4511 78.104C24.4748 78.0827 24.4957 78.0479 24.5136 77.9996L24.5399 77.9272L24.1408 76.8221H24.3681L24.6443 77.6686H24.6557L24.932 76.8221H25.16L24.7104 78.0586C24.6895 78.1154 24.663 78.1634 24.6308 78.2027C24.5986 78.2425 24.5603 78.2723 24.5158 78.2922C24.4713 78.3121 24.4197 78.3221 24.3609 78.3221ZM26.2887 77.913H26.0558L26.5792 76.4584H26.8328L27.3562 77.913H27.1233L26.712 76.7226H26.7007L26.2887 77.913ZM26.3278 77.3434H27.0835V77.528H26.3278V77.3434ZM27.6792 77.913V76.8221H27.8845V76.9954H27.8958C27.9157 76.9366 27.9508 76.8905 28.0009 76.8569C28.0516 76.8228 28.1089 76.8057 28.1728 76.8057C28.1861 76.8057 28.2017 76.8062 28.2197 76.8071C28.2382 76.8081 28.2526 76.8093 28.263 76.8107V77.0138C28.2545 77.0114 28.2393 77.0088 28.2176 77.006C28.1958 77.0027 28.174 77.001 28.1522 77.001C28.102 77.001 28.0573 77.0117 28.018 77.033C27.9792 77.0538 27.9484 77.0829 27.9257 77.1204C27.9029 77.1573 27.8916 77.1994 27.8916 77.2468V77.913H27.6792ZM29.1505 76.8221V76.9925H28.5546V76.8221H29.1505ZM28.7144 76.5607H28.9268V77.5927C28.9268 77.6338 28.9329 77.6649 28.9452 77.6857C28.9575 77.7061 28.9734 77.72 28.9928 77.7276C29.0127 77.7347 29.0342 77.7382 29.0574 77.7382C29.0745 77.7382 29.0894 77.7371 29.1022 77.7347C29.115 77.7323 29.1249 77.7304 29.132 77.729L29.1704 77.9044C29.1581 77.9092 29.1405 77.9139 29.1178 77.9186C29.0951 77.9239 29.0667 77.9267 29.0326 77.9272C28.9767 77.9281 28.9246 77.9182 28.8763 77.8973C28.828 77.8765 28.789 77.8443 28.7591 77.8007C28.7293 77.7572 28.7144 77.7025 28.7144 77.6367V76.5607ZM29.5154 77.913V76.8221H29.7277V77.913H29.5154ZM29.6226 76.6537C29.5857 76.6537 29.554 76.6414 29.5275 76.6168C29.5014 76.5917 29.4884 76.5619 29.4884 76.5273C29.4884 76.4923 29.5014 76.4624 29.5275 76.4378C29.554 76.4127 29.5857 76.4002 29.6226 76.4002C29.6596 76.4002 29.691 76.4127 29.7171 76.4378C29.7436 76.4624 29.7569 76.4923 29.7569 76.5273C29.7569 76.5619 29.7436 76.5917 29.7171 76.6168C29.691 76.6414 29.6596 76.6537 29.6226 76.6537ZM30.6626 76.8221V76.9925H30.0461V76.8221H30.6626ZM30.2152 77.913V76.6956C30.2152 76.6275 30.2301 76.5709 30.2599 76.5259C30.2897 76.4804 30.3293 76.4466 30.3785 76.4243C30.4278 76.4016 30.4813 76.3902 30.539 76.3902C30.5816 76.3902 30.6181 76.3938 30.6484 76.4009C30.6787 76.4075 30.7012 76.4137 30.7159 76.4194L30.6662 76.5912C30.6562 76.5884 30.6434 76.5851 30.6278 76.5813C30.6122 76.577 30.5932 76.5749 30.571 76.5749C30.5194 76.5749 30.4824 76.5877 30.4602 76.6132C30.4384 76.6388 30.4275 76.6757 30.4275 76.724V77.913H30.2152ZM31.0117 77.913V76.8221H31.2241V77.913H31.0117ZM31.119 76.6537C31.082 76.6537 31.0503 76.6414 31.0238 76.6168C30.9977 76.5917 30.9847 76.5619 30.9847 76.5273C30.9847 76.4923 30.9977 76.4624 31.0238 76.4378C31.0503 76.4127 31.082 76.4002 31.119 76.4002C31.1559 76.4002 31.1874 76.4127 31.2134 76.4378C31.2399 76.4624 31.2532 76.4923 31.2532 76.5273C31.2532 76.5619 31.2399 76.5917 31.2134 76.6168C31.1874 76.6414 31.1559 76.6537 31.119 76.6537ZM32.0993 77.935C31.9937 77.935 31.9028 77.9111 31.8266 77.8632C31.7508 77.815 31.6926 77.7484 31.6518 77.6637C31.6111 77.5789 31.5908 77.4819 31.5908 77.3725C31.5908 77.2617 31.6116 77.1639 31.6533 77.0792C31.6949 76.9939 31.7536 76.9274 31.8294 76.8796C31.9051 76.8318 31.9944 76.8079 32.0971 76.8079C32.18 76.8079 32.2539 76.8232 32.3187 76.854C32.3836 76.8843 32.4359 76.9269 32.4757 76.9819C32.5159 77.0368 32.5399 77.1009 32.5474 77.1743H32.3408C32.3294 77.1232 32.3034 77.0792 32.2626 77.0422C32.2224 77.0053 32.1684 76.9868 32.1007 76.9868C32.0415 76.9868 31.9897 77.0025 31.9452 77.0337C31.9011 77.0645 31.8668 77.1085 31.8422 77.1658C31.8176 77.2226 31.8052 77.2899 31.8052 77.3675C31.8052 77.4471 31.8173 77.5157 31.8415 77.5735C31.8656 77.6312 31.8997 77.676 31.9437 77.7077C31.9882 77.7394 32.0406 77.7553 32.1007 77.7553C32.1409 77.7553 32.1774 77.748 32.2101 77.7333C32.2432 77.7181 32.2709 77.6966 32.2932 77.6686C32.3159 77.6407 32.3318 77.6071 32.3408 77.5678H32.5474C32.5399 77.6383 32.5169 77.7013 32.4785 77.7567C32.4402 77.8121 32.3888 77.8557 32.3244 77.8874C32.2605 77.9191 32.1855 77.935 32.0993 77.935ZM32.9045 77.913V76.8221H33.1169V77.913H32.9045ZM33.0118 76.6537C32.9748 76.6537 32.9431 76.6414 32.9166 76.6168C32.8906 76.5917 32.8775 76.5619 32.8775 76.5273C32.8775 76.4923 32.8906 76.4624 32.9166 76.4378C32.9431 76.4127 32.9748 76.4002 33.0118 76.4002C33.0487 76.4002 33.0802 76.4127 33.1062 76.4378C33.1327 76.4624 33.146 76.4923 33.146 76.5273C33.146 76.5619 33.1327 76.5917 33.1062 76.6168C33.0802 76.6414 33.0487 76.6537 33.0118 76.6537ZM33.85 77.9371C33.7809 77.9371 33.7184 77.9243 33.6625 77.8988C33.6067 77.8727 33.5624 77.8351 33.5297 77.7858C33.4975 77.7366 33.4814 77.6762 33.4814 77.6047C33.4814 77.5432 33.4933 77.4925 33.5169 77.4527C33.5406 77.413 33.5726 77.3815 33.6128 77.3583C33.6531 77.3351 33.6981 77.3176 33.7478 77.3057C33.7975 77.2939 33.8482 77.2849 33.8998 77.2787C33.9651 77.2712 34.0181 77.265 34.0589 77.2603C34.0996 77.2551 34.1292 77.2468 34.1476 77.2354C34.1661 77.224 34.1753 77.2056 34.1753 77.18V77.175C34.1753 77.113 34.1578 77.065 34.1228 77.0309C34.0882 76.9968 34.0366 76.9797 33.9679 76.9797C33.8964 76.9797 33.8401 76.9956 33.7989 77.0273C33.7582 77.0586 33.73 77.0934 33.7144 77.1317L33.5148 77.0863C33.5385 77.02 33.5731 76.9665 33.6185 76.9257C33.6644 76.8846 33.7172 76.8547 33.7769 76.8363C33.8366 76.8173 33.8993 76.8079 33.9651 76.8079C34.0087 76.8079 34.0548 76.8131 34.1036 76.8235C34.1528 76.8334 34.1988 76.8519 34.2414 76.8789C34.2845 76.9059 34.3197 76.9445 34.3472 76.9946C34.3747 77.0444 34.3884 77.109 34.3884 77.1885V77.913H34.181V77.7638H34.1725C34.1588 77.7913 34.1382 77.8183 34.1107 77.8448C34.0832 77.8713 34.048 77.8933 34.0049 77.9108C33.9618 77.9284 33.9102 77.9371 33.85 77.9371ZM33.8962 77.7667C33.9549 77.7667 34.0051 77.7551 34.0468 77.7319C34.0889 77.7087 34.1209 77.6784 34.1427 77.6409C34.1649 77.6031 34.176 77.5626 34.176 77.5195V77.3789C34.1685 77.3864 34.1538 77.3936 34.132 77.4002C34.1107 77.4063 34.0863 77.4118 34.0589 77.4165C34.0314 77.4208 34.0046 77.4248 33.9786 77.4286C33.9526 77.4319 33.9308 77.4347 33.9133 77.4371C33.8721 77.4423 33.8344 77.4511 33.8003 77.4634C33.7667 77.4757 33.7397 77.4935 33.7194 77.5167C33.6995 77.5394 33.6895 77.5697 33.6895 77.6076C33.6895 77.6601 33.7089 77.6999 33.7478 77.7269C33.7866 77.7534 33.8361 77.7667 33.8962 77.7667ZM35.0136 76.4584V77.913H34.8012V76.4584H35.0136ZM36.3251 76.4584V77.913H36.1056V76.4584H36.3251ZM36.97 77.2652V77.913H36.7577V76.8221H36.9615V76.9996H36.975C37.0001 76.9418 37.0394 76.8954 37.0929 76.8604C37.1469 76.8254 37.2148 76.8079 37.2967 76.8079C37.3711 76.8079 37.4362 76.8235 37.492 76.8547C37.5479 76.8855 37.5912 76.9314 37.622 76.9925C37.6528 77.0536 37.6682 77.1291 37.6682 77.2191V77.913H37.4558V77.2446C37.4558 77.1656 37.4352 77.1038 37.394 77.0593C37.3528 77.0143 37.2962 76.9918 37.2243 76.9918C37.175 76.9918 37.1312 77.0025 37.0929 77.0238C37.055 77.0451 37.0249 77.0763 37.0027 77.1175C36.9809 77.1582 36.97 77.2075 36.97 77.2652ZM38.5922 76.8221V76.9925H37.9963V76.8221H38.5922ZM38.1561 76.5607H38.3685V77.5927C38.3685 77.6338 38.3746 77.6649 38.3869 77.6857C38.3993 77.7061 38.4151 77.72 38.4345 77.7276C38.4544 77.7347 38.476 77.7382 38.4992 77.7382C38.5162 77.7382 38.5311 77.7371 38.5439 77.7347C38.5567 77.7323 38.5666 77.7304 38.5737 77.729L38.6121 77.9044C38.5998 77.9092 38.5823 77.9139 38.5595 77.9186C38.5368 77.9239 38.5084 77.9267 38.4743 77.9272C38.4184 77.9281 38.3663 77.9182 38.318 77.8973C38.2698 77.8765 38.2307 77.8443 38.2009 77.8007C38.171 77.7572 38.1561 77.7025 38.1561 77.6367V76.5607ZM39.4156 77.935C39.3081 77.935 39.2155 77.912 39.1379 77.8661C39.0607 77.8197 39.001 77.7546 38.9589 77.6708C38.9172 77.5865 38.8964 77.4878 38.8964 77.3746C38.8964 77.2629 38.9172 77.1644 38.9589 77.0792C39.001 76.9939 39.0597 76.9274 39.135 76.8796C39.2108 76.8318 39.2993 76.8079 39.4006 76.8079C39.4622 76.8079 39.5219 76.818 39.5796 76.8384C39.6374 76.8587 39.6892 76.8907 39.7352 76.9343C39.7811 76.9778 39.8173 77.0344 39.8438 77.104C39.8703 77.1731 39.8836 77.2572 39.8836 77.3561V77.4314H39.0164V77.2723H39.6755C39.6755 77.2165 39.6641 77.167 39.6414 77.1239C39.6187 77.0803 39.5867 77.046 39.5455 77.0209C39.5048 76.9958 39.457 76.9833 39.4021 76.9833C39.3424 76.9833 39.2903 76.998 39.2458 77.0273C39.2018 77.0562 39.1677 77.0941 39.1435 77.1409C39.1199 77.1873 39.108 77.2378 39.108 77.2922V77.4165C39.108 77.4894 39.1208 77.5515 39.1464 77.6026C39.1724 77.6537 39.2086 77.6928 39.255 77.7198C39.3014 77.7463 39.3557 77.7596 39.4177 77.7596C39.4579 77.7596 39.4946 77.7539 39.5278 77.7425C39.5609 77.7307 39.5896 77.7132 39.6137 77.69C39.6379 77.6668 39.6563 77.6381 39.6691 77.604L39.8701 77.6402C39.854 77.6994 39.8251 77.7513 39.7835 77.7958C39.7423 77.8398 39.6904 77.8741 39.6279 77.8988C39.5659 77.9229 39.4951 77.935 39.4156 77.935ZM40.4616 76.4584V77.913H40.2492V76.4584H40.4616ZM41.0896 76.4584V77.913H40.8773V76.4584H41.0896ZM41.5053 77.913V76.8221H41.7177V77.913H41.5053ZM41.6126 76.6537C41.5756 76.6537 41.5439 76.6414 41.5174 76.6168C41.4913 76.5917 41.4783 76.5619 41.4783 76.5273C41.4783 76.4923 41.4913 76.4624 41.5174 76.4378C41.5439 76.4127 41.5756 76.4002 41.6126 76.4002C41.6495 76.4002 41.681 76.4127 41.707 76.4378C41.7335 76.4624 41.7468 76.4923 41.7468 76.5273C41.7468 76.5619 41.7335 76.5917 41.707 76.6168C41.681 76.6414 41.6495 76.6537 41.6126 76.6537ZM42.5907 78.3448C42.5041 78.3448 42.4295 78.3334 42.367 78.3107C42.305 78.288 42.2543 78.2579 42.215 78.2205C42.1757 78.1831 42.1464 78.1421 42.127 78.0976L42.3095 78.0223C42.3223 78.0432 42.3393 78.0652 42.3606 78.0884C42.3824 78.1121 42.4118 78.1322 42.4487 78.1488C42.4861 78.1653 42.5342 78.1736 42.5929 78.1736C42.6734 78.1736 42.7399 78.154 42.7924 78.1147C42.845 78.0758 42.8713 78.0138 42.8713 77.9286V77.7141H42.8578C42.845 77.7373 42.8265 77.7631 42.8024 77.7915C42.7787 77.8199 42.746 77.8445 42.7044 77.8654C42.6627 77.8862 42.6085 77.8966 42.5417 77.8966C42.4556 77.8966 42.3779 77.8765 42.3088 77.8363C42.2401 77.7955 42.1857 77.7356 42.1454 77.6566C42.1057 77.577 42.0858 77.4793 42.0858 77.3632C42.0858 77.2472 42.1054 77.1478 42.1447 77.065C42.1845 76.9821 42.2389 76.9186 42.3081 76.8746C42.3772 76.8301 42.4556 76.8079 42.5432 76.8079C42.6109 76.8079 42.6656 76.8192 42.7072 76.8419C42.7489 76.8642 42.7813 76.8902 42.8045 76.9201C42.8282 76.9499 42.8464 76.9762 42.8592 76.9989H42.8748V76.8221H43.0829V77.9371C43.0829 78.0309 43.0611 78.1078 43.0176 78.1679C42.974 78.2281 42.9151 78.2726 42.8407 78.3015C42.7669 78.3303 42.6835 78.3448 42.5907 78.3448ZM42.5886 77.7205C42.6497 77.7205 42.7013 77.7063 42.7434 77.6779C42.7861 77.649 42.8183 77.6078 42.84 77.5543C42.8623 77.5003 42.8734 77.4357 42.8734 77.3604C42.8734 77.287 42.8625 77.2224 42.8407 77.1665C42.819 77.1106 42.787 77.0671 42.7449 77.0358C42.7027 77.0041 42.6506 76.9882 42.5886 76.9882C42.5247 76.9882 42.4714 77.0048 42.4288 77.038C42.3862 77.0706 42.354 77.1151 42.3322 77.1715C42.3109 77.2278 42.3003 77.2908 42.3003 77.3604C42.3003 77.4319 42.3111 77.4946 42.3329 77.5486C42.3547 77.6026 42.3869 77.6447 42.4295 77.675C42.4726 77.7053 42.5256 77.7205 42.5886 77.7205ZM43.9679 77.935C43.8604 77.935 43.7679 77.912 43.6902 77.8661C43.613 77.8197 43.5534 77.7546 43.5112 77.6708C43.4696 77.5865 43.4487 77.4878 43.4487 77.3746C43.4487 77.2629 43.4696 77.1644 43.5112 77.0792C43.5534 76.9939 43.6121 76.9274 43.6874 76.8796C43.7631 76.8318 43.8517 76.8079 43.953 76.8079C44.0145 76.8079 44.0742 76.818 44.132 76.8384C44.1897 76.8587 44.2416 76.8907 44.2875 76.9343C44.3334 76.9778 44.3697 77.0344 44.3962 77.104C44.4227 77.1731 44.4359 77.2572 44.4359 77.3561V77.4314H43.5688V77.2723H44.2278C44.2278 77.2165 44.2165 77.167 44.1938 77.1239C44.171 77.0803 44.1391 77.046 44.0979 77.0209C44.0572 76.9958 44.0093 76.9833 43.9544 76.9833C43.8947 76.9833 43.8427 76.998 43.7982 77.0273C43.7541 77.0562 43.72 77.0941 43.6959 77.1409C43.6722 77.1873 43.6604 77.2378 43.6604 77.2922V77.4165C43.6604 77.4894 43.6732 77.5515 43.6987 77.6026C43.7248 77.6537 43.761 77.6928 43.8074 77.7198C43.8538 77.7463 43.908 77.7596 43.97 77.7596C44.0103 77.7596 44.047 77.7539 44.0801 77.7425C44.1133 77.7307 44.1419 77.7132 44.1661 77.69C44.1902 77.6668 44.2087 77.6381 44.2215 77.604L44.4224 77.6402C44.4063 77.6994 44.3775 77.7513 44.3358 77.7958C44.2946 77.8398 44.2428 77.8741 44.1803 77.8988C44.1182 77.9229 44.0474 77.935 43.9679 77.935ZM45.0139 77.2652V77.913H44.8016V76.8221H45.0054V76.9996H45.0189C45.044 76.9418 45.0833 76.8954 45.1368 76.8604C45.1908 76.8254 45.2587 76.8079 45.3406 76.8079C45.415 76.8079 45.4801 76.8235 45.5359 76.8547C45.5918 76.8855 45.6351 76.9314 45.6659 76.9925C45.6967 77.0536 45.7121 77.1291 45.7121 77.2191V77.913H45.4997V77.2446C45.4997 77.1656 45.4791 77.1038 45.4379 77.0593C45.3967 77.0143 45.3402 76.9918 45.2682 76.9918C45.2189 76.9918 45.1751 77.0025 45.1368 77.0238C45.0989 77.0451 45.0688 77.0763 45.0466 77.1175C45.0248 77.1582 45.0139 77.2075 45.0139 77.2652ZM46.5864 77.935C46.4808 77.935 46.3899 77.9111 46.3137 77.8632C46.2379 77.815 46.1797 77.7484 46.1389 77.6637C46.0982 77.5789 46.0779 77.4819 46.0779 77.3725C46.0779 77.2617 46.0987 77.1639 46.1404 77.0792C46.182 76.9939 46.2407 76.9274 46.3165 76.8796C46.3923 76.8318 46.4815 76.8079 46.5843 76.8079C46.6671 76.8079 46.741 76.8232 46.8058 76.854C46.8707 76.8843 46.923 76.9269 46.9628 76.9819C47.0031 77.0368 47.027 77.1009 47.0345 77.1743H46.8279C46.8165 77.1232 46.7905 77.0792 46.7497 77.0422C46.7095 77.0053 46.6555 76.9868 46.5878 76.9868C46.5286 76.9868 46.4768 77.0025 46.4323 77.0337C46.3882 77.0645 46.3539 77.1085 46.3293 77.1658C46.3047 77.2226 46.2924 77.2899 46.2924 77.3675C46.2924 77.4471 46.3044 77.5157 46.3286 77.5735C46.3527 77.6312 46.3868 77.676 46.4308 77.7077C46.4754 77.7394 46.5277 77.7553 46.5878 77.7553C46.6281 77.7553 46.6645 77.748 46.6972 77.7333C46.7303 77.7181 46.758 77.6966 46.7803 77.6686C46.803 77.6407 46.8189 77.6071 46.8279 77.5678H47.0345C47.027 77.6383 47.004 77.7013 46.9656 77.7567C46.9273 77.8121 46.8759 77.8557 46.8115 77.8874C46.7476 77.9191 46.6726 77.935 46.5864 77.935ZM47.8618 77.935C47.7543 77.935 47.6618 77.912 47.5841 77.8661C47.5069 77.8197 47.4473 77.7546 47.4051 77.6708C47.3635 77.5865 47.3426 77.4878 47.3426 77.3746C47.3426 77.2629 47.3635 77.1644 47.4051 77.0792C47.4473 76.9939 47.506 76.9274 47.5813 76.8796C47.657 76.8318 47.7456 76.8079 47.8469 76.8079C47.9084 76.8079 47.9681 76.818 48.0259 76.8384C48.0836 76.8587 48.1355 76.8907 48.1814 76.9343C48.2273 76.9778 48.2636 77.0344 48.2901 77.104C48.3166 77.1731 48.3298 77.2572 48.3298 77.3561V77.4314H47.4627V77.2723H48.1218C48.1218 77.2165 48.1104 77.167 48.0877 77.1239C48.0649 77.0803 48.033 77.046 47.9918 77.0209C47.9511 76.9958 47.9032 76.9833 47.8483 76.9833C47.7887 76.9833 47.7366 76.998 47.6921 77.0273C47.648 77.0562 47.6139 77.0941 47.5898 77.1409C47.5661 77.1873 47.5543 77.2378 47.5543 77.2922V77.4165C47.5543 77.4894 47.5671 77.5515 47.5926 77.6026C47.6187 77.6537 47.6549 77.6928 47.7013 77.7198C47.7477 77.7463 47.8019 77.7596 47.8639 77.7596C47.9042 77.7596 47.9409 77.7539 47.974 77.7425C48.0072 77.7307 48.0358 77.7132 48.06 77.69C48.0841 77.6668 48.1026 77.6381 48.1154 77.604L48.3164 77.6402C48.3003 77.6994 48.2714 77.7513 48.2297 77.7958C48.1885 77.8398 48.1367 77.8741 48.0742 77.8988C48.0121 77.9229 47.9414 77.935 47.8618 77.935Z" fill="#868686"/>
</svg>
